PathFileType	4	(X/Y/Z)	s05c0001.trc
DataRate	CameraRate	NumFrames	NumMarkers	Units	OrigDataRate	OrigDataStartFrame	OrigNumFrames
200	200	4	49	mm	200	1750	2000
Frame#	Time	racr			lacr			c7			jug			rlel			rdr			llel			ldr			s2			lic			ric			lasi			rasi			rpsi			lpsi			rgt			lgt			rth1			rth2			rth3			rth4			rlfc			rmfc			rsh1			rsh2			rsh3			rsh4			rlmal			rmmal			rcal			rtoe			rmt5			rmt1			lth1			lth2			lth4			lth3			llfc			lmfc			lsh1			lsh2			lsh3			lsh4			llmal			lmmal			lcal			ltoe			lmt1			lmt5			
		X1	Y1	Z1	X2	Y2	Z2	X3	Y3	Z3	X4	Y4	Z4	X5	Y5	Z5	X6	Y6	Z6	X7	Y7	Z7	X8	Y8	Z8	X9	Y9	Z9	X10	Y10	Z10	X11	Y11	Z11	X12	Y12	Z12	X13	Y13	Z13	X14	Y14	Z14	X15	Y15	Z15	X16	Y16	Z16	X17	Y17	Z17	X18	Y18	Z18	X19	Y19	Z19	X20	Y20	Z20	X21	Y21	Z21	X22	Y22	Z22	X23	Y23	Z23	X24	Y24	Z24	X25	Y25	Z25	X26	Y26	Z26	X27	Y27	Z27	X28	Y28	Z28	X29	Y29	Z29	X30	Y30	Z30	X31	Y31	Z31	X32	Y32	Z32	X33	Y33	Z33	X34	Y34	Z34	X35	Y35	Z35	X36	Y36	Z36	X37	Y37	Z37	X38	Y38	Z38	X39	Y39	Z39	X40	Y40	Z40	X41	Y41	Z41	X42	Y42	Z42	X43	Y43	Z43	X44	Y44	Z44	X45	Y45	Z45	X46	Y46	Z46	X47	Y47	Z47	X48	Y48	Z48	X49	Y49	Z49	
1750	8.7500	266.978088	1528.289185	350.104706	254.444641	1536.252319	3.448723	200.573547	1572.067505	172.936676	343.802399	1484.600952	171.556793	235.934937	1281.974854	535.302490	307.129150	1137.489746	743.522522	200.191589	1294.789307	-193.993195	233.205704	1160.741455	-431.870941	174.143280	1035.607300	180.734818	315.135712	1095.862915	31.063526	318.337769	1076.552979	316.564117	368.039154	1029.657471	62.814827	375.088501	1020.656860	284.245361	197.603012	1068.266846	223.887711	194.940994	1072.298462	134.665131	269.611237	923.367310	334.456696	241.580826	954.034912	10.382919	273.304657	825.141296	350.683685	285.536896	736.234009	349.765564	251.390427	656.029785	337.897339	322.028168	732.590454	341.108582	254.461273	507.623199	312.328552	246.945206	506.781372	211.312881	201.488022	410.124176	339.988037	217.034698	322.509338	330.960388	189.427460	242.060730	323.710510	249.383636	323.261566	308.230286	187.083466	109.585289	305.791077	212.846130	124.578369	227.900620	136.832565	62.409809	249.269226	424.662018	81.056152	309.467468	317.298950	44.863781	356.003448	350.554962	47.216175	242.567108	259.176208	822.257263	-10.958364	281.694885	739.469055	-4.991440	317.663452	739.351807	7.232565	256.696075	652.575989	6.083636	245.008804	517.019165	38.798038	238.071014	509.209625	138.832352	194.337708	400.059265	12.843272	209.716766	314.039978	22.833042	178.549118	231.010269	27.170887	242.013748	314.022400	43.333088	183.168671	108.798553	41.823414	211.775406	127.576080	115.100983	136.952957	57.385998	94.063293	425.007507	79.428909	39.346470	351.208527	48.217827	106.005585	312.824371	38.251762	-5.451459	
1751	8.7550	266.994751	1528.300171	350.091522	254.492538	1536.227173	3.417309	200.614304	1572.053589	172.896515	343.833710	1484.590698	171.548691	235.971481	1281.968018	535.264343	307.140320	1137.497192	743.506104	200.204239	1294.772095	-193.998444	233.268692	1160.703247	-431.873566	174.164032	1035.627808	180.738541	315.170410	1095.864624	31.073702	318.391052	1076.545166	316.551392	368.084564	1029.651123	62.818951	375.091156	1020.652710	284.230560	197.631454	1068.264526	223.884064	194.968109	1072.289551	134.662872	269.609589	923.373413	334.457397	241.603851	954.031799	10.391566	273.334015	825.141724	350.689056	285.556763	736.234619	349.757507	251.397461	656.030762	337.904053	322.049011	732.600586	341.099426	254.452438	507.577118	312.362701	246.947403	506.784943	211.303696	201.510834	410.122437	339.981659	217.091476	322.506683	330.985382	189.432327	242.060455	323.710938	249.405487	323.272552	308.228210	187.067215	109.587189	305.794617	212.833817	124.568344	227.901398	136.839951	62.387001	249.279678	424.674530	81.045486	309.470093	317.293884	44.864574	356.003540	350.565979	47.230286	242.553970	259.202820	822.271973	-10.947854	281.701569	739.473511	-5.010074	317.687195	739.360107	7.212149	256.712067	652.575012	6.088081	245.038589	517.025513	38.801846	238.079727	509.202759	138.820755	194.351486	400.067841	12.826605	209.726089	314.049866	22.841084	178.559845	231.006195	27.178534	242.011719	314.011139	43.340378	183.173401	108.806297	41.819157	211.759720	127.584938	115.095329	136.949661	57.377560	94.064789	425.020386	79.432465	39.349735	351.221222	48.230732	106.007446	312.823395	38.246693	-5.447587	
1752	8.7600	267.018982	1528.309082	350.086914	254.490051	1536.221191	3.425751	200.644455	1572.053833	172.874054	343.855896	1484.608154	171.538574	235.970108	1281.982056	535.284851	307.166748	1137.530273	743.519653	200.244156	1294.752319	-193.989197	233.318497	1160.658081	-431.851410	174.186539	1035.629028	180.719650	315.194916	1095.865723	31.071123	318.419861	1076.545898	316.545746	368.096924	1029.644897	62.808014	375.118713	1020.653687	284.257629	197.654221	1068.263184	223.875748	194.996811	1072.292480	134.663666	269.648560	923.359436	334.460022	241.633072	954.036743	10.387606	273.337921	825.134521	350.690186	285.587646	736.227478	349.757751	251.426697	656.032104	337.903290	322.061005	732.608093	341.103149	254.473877	507.579346	312.377289	246.957504	506.772369	211.314743	201.512024	410.135956	339.983704	217.061859	322.466888	330.976044	189.443375	242.056717	323.699677	249.406128	323.262573	308.225250	187.070282	109.602631	305.799042	212.827408	124.578156	227.899826	136.853897	62.393982	249.268524	424.672760	81.060715	309.478821	317.294739	44.860435	355.998993	350.568542	47.222916	242.566925	259.219177	822.263794	-10.959087	281.740234	739.465698	-5.005819	317.704315	739.348572	7.207247	256.730408	652.568481	6.093738	245.045181	517.018127	38.803078	238.103287	509.207550	138.821854	194.356262	400.068207	12.830979	209.724579	314.039185	22.835117	178.544525	231.002853	27.171011	242.020554	314.011841	43.325871	183.160568	108.814308	41.810028	211.765762	127.573257	115.096764	136.956146	57.391720	94.058426	425.012054	79.431366	39.344410	351.218109	48.206924	106.005615	312.830292	38.245083	-5.441771	
1753	8.7650	267.042633	1528.305054	350.067261	254.510574	1536.206177	3.401553	200.644455	1572.053833	172.874054	343.873077	1484.599854	171.520554	236.010574	1281.985840	535.260864	307.190765	1137.535034	743.506165	200.282288	1294.722290	-194.001312	233.374878	1160.632446	-431.843140	174.222900	1035.628052	180.721649	315.242981	1095.843872	31.068794	318.429047	1076.546265	316.561157	368.113525	1029.645874	62.806961	375.140961	1020.652222	284.248169	197.680435	1068.270264	223.879654	195.026459	1072.287231	134.666046	269.662170	923.370728	334.454956	241.641510	954.019348	10.388116	273.356537	825.146545	350.671753	285.603516	736.238281	349.752716	251.423401	656.049805	337.896271	322.076935	732.606506	341.115845	254.485214	507.570526	312.379028	246.984467	506.780670	211.313004	201.521347	410.127991	339.985626	217.073425	322.508484	330.978729	189.444199	242.060043	323.705200	249.404755	323.280853	308.252960	187.075348	109.597153	305.790833	212.820526	124.567650	227.911118	136.834015	62.395031	249.281723	424.663391	81.052399	309.467316	317.295746	44.869362	356.019501	350.563568	47.219776	242.582016	259.241241	822.251526	-10.971606	281.763916	739.453674	-4.991365	317.732941	739.362000	7.189971	256.751617	652.583313	6.081889	245.043365	517.012512	38.802692	238.101685	509.210785	138.822449	194.364136	400.066101	12.831833	209.735916	314.052582	22.836834	178.567581	231.006927	27.179348	242.027084	314.016785	43.341789	183.169922	108.809052	41.813889	211.778397	127.582924	115.115250	136.940002	57.393387	94.048759	425.011993	79.448746	39.350071	351.240448	48.231644	106.022774	312.824371	38.258686	-5.455240	
